<?xml version="1.0" encoding="utf-8"?>
<!-- Generator: Adobe Illustrator 16.0.0, SVG Export Plug-In . SVG Version: 6.00 Build 0)  -->
<!DOCTYPE svg PUBLIC "-//W3C//DTD SVG 1.1//EN" "http://www.w3.org/Graphics/SVG/1.1/DTD/svg11.dtd">
<svg version="1.1" id="svg2" xmlns:svg="http://www.w3.org/2000/svg" xmlns:inkscape="http://www.inkscape.org/namespaces/inkscape"
	 xmlns="http://www.w3.org/2000/svg" xmlns:xlink="http://www.w3.org/1999/xlink" x="0px" y="0px" width="700px" height="468px"
	 viewBox="0 0 700 468" enable-background="new 0 0 700 468" xml:space="preserve">
<defs>
	
	<inkscape:path-effect  id="path-effect2460" effect="gears"></inkscape:path-effect>
</defs>
<path id="path2441" fill="none" stroke="#000000" d="M47.028,47.518v406.405"/>
<path id="path2443" fill="none" stroke="#000000" stroke-width="0.9994" d="M668.5,400.371H47.028"/>
<path fill="none" d=""/>
<path id="path3259" d="M73.846,137.719l-10.395-3.727l10.395-3.728C72.185,132.466,72.195,135.476,73.846,137.719z"/>
<path id="path3262" d="M195.206,130.236l10.395,3.727l-10.395,3.728C196.867,135.489,196.857,132.479,195.206,130.236z"/>
<path id="path2458" d="M198.501,133.977"/>
<path fill="none" d=""/>
<path id="path3259_1_" d="M233.738,178.084l-8.37-3.001l8.37-3.001C232.4,173.854,232.408,176.278,233.738,178.084z"/>
<path id="path3262_1_" d="M313.77,172.058l8.37,3.001l-8.37,3.001C315.106,176.288,315.099,173.864,313.77,172.058z"/>
<path id="path6106" d="M313.448,175.071"/>
<path fill="none" d=""/>
<path id="path3259_2_" d="M363.888,139.078l-9.858-3.535l9.858-3.534C362.313,134.095,362.322,136.95,363.888,139.078z"/>
<path id="path3262_2_" d="M454.681,130.98l9.858,3.534l-9.858,3.535C456.256,135.963,456.247,133.107,454.681,130.98z"/>
<path id="path6108" d="M462.548,134.529"/>
<path fill="none" d=""/>
<path id="path3259_3_" d="M251.667,102.6l-13.025-4.67l13.025-4.67C249.586,96.017,249.598,99.79,251.667,102.6z"/>
<path id="path3262_3_" d="M438.739,93.223l13.024,4.67l-13.024,4.67C440.819,99.806,440.808,96.034,438.739,93.223z"/>
<path id="path6110" d="M449.133,97.912"/>
<path id="path6112" fill="none" stroke="#5A5A5A" stroke-dasharray="3,1" d="M216.678,400.371l-0.006-351.517"/>
<path id="path6114" fill="none" stroke="#5A5A5A" stroke-dasharray="3,1" d="M477.92,400.371l-0.01-350.657"/>
<path id="path6116" fill="none" stroke="#000000" stroke-linecap="square" stroke-linejoin="bevel" d="M668.5,400.371
	c0-116.815,0-233.63,0-350.445 M47.028,48.297c207.158,0.543,414.315,1.086,621.472,1.629"/>
<path id="path6124" fill="none" stroke="#FF4E00" stroke-width="2" d="M50.535,400.371c1.236,29.709,23.653,62.971,57.253,60.609
	c30.701,0.751,49.805-27.316,73.276-42.367c47.125-38.715,87.854-85.999,111.227-142.08c18.987-39.951,44.124-78.718,79.794-106.39
	c33.226-25.004,77.192-22.924,116.687-28.689c51.575-5.545,107.908-14.265,146.519-51.145c5.224-5.69,9.451-12.337,11.803-19.651"/>
<path id="path6149" fill="none" stroke="#5A5A5A" d="M216.677,365.24h57.328l0-52.341h55.627v-53.335h46.037V211.87h102.246"/>
<path id="path6151" fill="none" stroke="#5A5A5A" stroke-dasharray="3,1" d="M329.632,259.564V132.38"/>
<path id="path6277" fill="#5A5A5A" d="M203.007,337.787h1.585v-1.546h-1.585V337.787z M203.007,343.971h1.585v-1.546h-1.585V343.971
	z M203.007,350.156h1.585v-1.546h-1.585V350.156z M203.007,356.341h1.585v-1.547h-1.585V356.341z M203.007,362.524h1.585v-1.546
	h-1.585V362.524z M203.007,368.709h1.585v-1.546h-1.585V368.709z M203.007,374.893h1.585v-1.546h-1.585V374.893z M203.007,381.078
	h1.585v-1.546h-1.585V381.078z M203.007,387.262h1.585v-1.546h-1.585V387.262z M203.007,393.447h1.585V391.9h-1.585V393.447z
	 M203.007,399.632h1.585v-1.547h-1.585V399.632z"/>
<text transform="matrix(1 0 0 1 334.9399 431.4998)" font-family="'CMUSerif-Bold'" font-size="21">Time</text>
<text transform="matrix(4.489659e-011 -1 1 4.489659e-011 31.373 295.6111)" font-family="'CMUSerif-Bold'" font-size="21">Profitability</text>
<text transform="matrix(1 0 0 1 131.9922 317.658)"><tspan x="0" y="0" font-family="'CMUSerif-Bold'" font-size="11">Equity  </tspan><tspan x="-18.639" y="13.2" font-family="'CMUSerif-Bold'" font-size="11">Crowdfunding</tspan></text>
<text transform="matrix(1 0 0 1 171.5684 272.2498)"><tspan x="0" y="0" font-family="'CMUSerif-Bold'" font-size="11">Angel </tspan><tspan x="-9.24" y="13.2" font-family="'CMUSerif-Bold'" font-size="11">Investors</tspan></text>
<text transform="matrix(1 0 0 1 279.168 102.5632)" font-family="'CMUSerif-Bold'" font-size="16">Venture Capital</text>
<text transform="matrix(1 0 0 1 84.4907 138.0779)" font-family="'CMUSerif-Bold'" font-size="16">Seed Capital</text>
<text transform="matrix(1 0 0 1 95.8989 368.9363)"><tspan x="0" y="0" font-family="'CMUSerif-Bold'" font-size="11">Friends, </tspan><tspan x="-18.238" y="13.2" font-family="'CMUSerif-Bold'" font-size="11">Family &amp; Fools</tspan></text>
<text transform="matrix(1 0 0 1 241.248 178.49)" font-family="'CMUSerif-Bold'" font-size="11">Early Stage</text>
<text transform="matrix(1 0 0 1 378.3301 137.5432)" font-family="'CMUSerif-Bold'" font-size="11">Later Stage</text>
<text transform="matrix(1 0 0 1 548.9541 211.8699)"><tspan x="0" y="0" font-family="'CMUSerif-Bold'" font-size="16">Public </tspan><tspan x="-6.328" y="19.2" font-family="'CMUSerif-Bold'" font-size="16">Trading</tspan></text>
<text transform="matrix(1 0 0 1 561.9668 80.5432)"><tspan x="0" y="0" font-family="'CMUSerif-Bold'" font-size="11">Secondary </tspan><tspan x="3.382" y="13.2" font-family="'CMUSerif-Bold'" font-size="11">Offerings</tspan></text>
<path id="path6108_1_" d="M528.813,334.951"/>
<text transform="matrix(1 0 0 1 418.1436 309.9646)" font-family="'CMUSerif-Bold'" font-size="16">Private Equity</text>
<text transform="matrix(1 0 0 1 172.1875 413.3376)" font-family="'CMUSerif-Bold'" font-size="11">Break Even</text>
<text transform="matrix(1 0 0 1 96.7993 420.5427)"><tspan x="0" y="0" font-family="'CMUSerif-Bold'" font-size="11">Valley  </tspan><tspan x="-4.285" y="13.201" font-family="'CMUSerif-Bold'" font-size="11">of Death</tspan></text>
<path id="path3259_5_" d="M68.484,373.962l-8.37-3.001l8.37-3.001C67.147,369.732,67.155,372.156,68.484,373.962z"/>
<path id="path3262_5_" d="M164.516,367.936l8.369,3.001l-8.369,3.001C165.853,372.166,165.846,369.742,164.516,367.936z"/>
<path id="path3259_6_" d="M107.623,321.683l-8.37-3.001l8.37-3.001C106.286,317.454,106.293,319.878,107.623,321.683z"/>
<path id="path3262_6_" d="M192.654,315.658l8.369,3.001l-8.369,3.001C193.992,319.887,193.984,317.464,192.654,315.658z"/>
<path id="path3259_7_" d="M147.64,278.275l-8.37-3.001l8.37-3.001C146.302,274.046,146.31,276.469,147.64,278.275z"/>
<path id="path3262_7_" d="M227.671,272.25l8.369,3.001l-8.369,3.001C229.009,276.479,229.001,274.055,227.671,272.25z"/>
<text transform="matrix(1 0 0 1 222.1157 383.697)" font-family="'CMUSerif-Bold'" font-size="11">Series A</text>
<text transform="matrix(1 0 0 1 279.396 330.4158)" font-family="'CMUSerif-Bold'" font-size="11">Series B</text>
<text transform="matrix(1 0 0 1 333.3301 276.4158)" font-family="'CMUSerif-Bold'" font-size="11">Series C</text>
<text transform="matrix(1 0 0 1 384.8896 227.4158)" font-family="'CMUSerif-Bold'" font-size="11">Mezzanine</text>
<path id="path3262_8_" d="M628.069,207.2l13.024,4.67l-13.024,4.67C630.149,213.783,630.138,210.01,628.069,207.2z"/>
<path id="path3259_8_" d="M522.814,216.54l-13.026-4.67l13.026-4.67C520.732,209.957,520.744,213.729,522.814,216.54z"/>
<path id="path3262_4_" d="M549.238,299.625l13.024,4.67l-13.024,4.67C551.318,306.208,551.307,302.435,549.238,299.625z"/>
<path id="path3259_4_" d="M406.983,308.965l-13.026-4.67l13.026-4.67C404.901,302.382,404.913,306.154,406.983,308.965z"/>
<text transform="matrix(1 0 0 1 466.4531 413.3376)" font-family="'CMUSerif-Bold'" font-size="11">IPO</text>
<path id="path6108_2_" d="M404.548,232.529"/>
<path id="path3259_9_" d="M553.977,88.641l-9.858-3.535l9.858-3.534C552.401,83.658,552.411,86.513,553.977,88.641z"/>
<path id="path3262_9_" d="M625.77,80.543l9.858,3.534l-9.858,3.535C627.345,85.526,627.336,82.67,625.77,80.543z"/>
</svg>
